<?xml version="1.0" encoding="UTF-8" standalone="no"?>
<!-- Created with Inkscape (http://www.inkscape.org/) -->

<svg
   xmlns:dc="http://purl.org/dc/elements/1.1/"
   xmlns:cc="http://creativecommons.org/ns#"
   xmlns:rdf="http://www.w3.org/1999/02/22-rdf-syntax-ns#"
   xmlns:svg="http://www.w3.org/2000/svg"
   xmlns="http://www.w3.org/2000/svg"
   xmlns:sodipodi="http://sodipodi.sourceforge.net/DTD/sodipodi-0.dtd"
   xmlns:inkscape="http://www.inkscape.org/namespaces/inkscape"
   width="710.17859"
   height="548.88165"
   id="svg2"
   version="1.1"
   inkscape:version="0.48.2 r9819"
   sodipodi:docname="weasel.svg">
  <defs
     id="defs4">
    <inkscape:path-effect
       effect="spiro"
       id="path-effect3106"
       is_visible="true" />
    <inkscape:path-effect
       effect="spiro"
       id="path-effect3102"
       is_visible="true" />
  </defs>
  <sodipodi:namedview
     id="base"
     pagecolor="#ffffff"
     bordercolor="#666666"
     borderopacity="1.0"
     inkscape:pageopacity="0.0"
     inkscape:pageshadow="2"
     inkscape:zoom="0.98994949"
     inkscape:cx="516.02503"
     inkscape:cy="251.1091"
     inkscape:document-units="px"
     inkscape:current-layer="layer1"
     showgrid="false"
     inkscape:object-paths="false"
     inkscape:window-width="1324"
     inkscape:window-height="1028"
     inkscape:window-x="170"
     inkscape:window-y="109"
     inkscape:window-maximized="0"
     fit-margin-top="0"
     fit-margin-left="0"
     fit-margin-right="0"
     fit-margin-bottom="-25"
     inkscape:showpageshadow="false"
     showborder="true" />
  <metadata
     id="metadata7">
    <rdf:RDF>
      <cc:Work
         rdf:about="">
        <dc:format>image/svg+xml</dc:format>
        <dc:type
           rdf:resource="http://purl.org/dc/dcmitype/StillImage" />
        <dc:title />
      </cc:Work>
    </rdf:RDF>
  </metadata>
  <g
     inkscape:label="Layer 1"
     inkscape:groupmode="layer"
     id="layer1"
     transform="translate(-16.214273,-65.21936)">
    <path
       style="fill:#000000;stroke:#000000;stroke-width:1px;stroke-linecap:butt;stroke-linejoin:miter;stroke-opacity:1"
       d="m 162.80639,115.09678 c 5.91884,9.23159 15.43369,15.53869 22.35837,24.04186 5.70174,7.00146 9.52215,15.34185 12.64163,23.81528 2.47836,6.73196 4.55904,13.63424 5.71428,20.71428 1.85692,11.38039 1.31464,23.14418 4.28572,34.28573 2.3451,8.79412 6.81724,16.90508 12.14286,24.28571 6.32377,8.76394 13.88279,16.60234 22.14285,23.57142 8.4904,7.16342 17.71341,13.41314 27.14286,19.28571 10.95653,6.82363 22.21273,13.15486 33.57143,19.28572 12.37452,6.67915 24.87663,13.12399 37.14286,20 12.84702,7.20159 25.60011,15.00856 35.71428,25.71428 7.6377,8.08441 13.56351,17.60618 19.28572,27.14287 4.60729,7.67855 9.12723,15.43047 12.85714,23.57142 4.14527,9.04751 7.28703,18.51399 10.71428,27.85715 3.37314,9.19566 7.04022,18.32321 9.28572,27.85714 2.47475,10.50727 3.18045,21.49119 1.42857,32.14286 -0.96941,5.89416 -2.68076,11.65984 -3.38322,17.59174 -0.70246,5.93189 -0.30908,12.23021 2.66894,17.40826 2.05298,3.56963 5.22556,6.40049 8.73942,8.54753 3.51387,2.14704 7.37759,3.65298 11.26058,5.0239 11.17324,3.94481 22.68694,6.86264 34.28571,9.28571 9.43433,1.9709 18.95642,3.62044 28.57143,4.28571 15.26589,1.05626 30.61362,-0.38062 45.71428,-2.85714 10.89957,-1.78754 21.74655,-4.12715 32.14286,-7.85714 8.5411,-3.06437 16.76261,-7.06905 24.28572,-12.14286 10.88776,-7.34302 20.31759,-17.00111 26.68854,-28.48477 5.05608,-9.1136 8.10942,-19.17208 11.93364,-28.86729 4.0988,-10.39135 9.10077,-20.40161 14.28572,-30.29588 4.16063,-7.93959 8.5737,-15.98285 15.2451,-21.96954 5.66429,-5.08294 12.69503,-8.42512 19.91335,-10.83683 2.2093,-0.73815 4.47558,-1.40086 6.8035,-1.48243 2.32792,-0.0816 4.74954,0.4695 6.55871,1.93674 1.05073,0.85214 1.85892,1.9838 2.40824,3.2201 0.54931,1.23631 0.84572,2.57585 0.96149,3.92374 0.23155,2.69576 -0.24759,5.39542 -0.6859,8.06537 -2.03662,12.40611 -3.24317,25.01162 -6.847,37.05619 -1.5288,5.10949 -3.48338,10.09151 -5.83683,14.87746 l -17.14286,31.42857 c -5.27415,9.01683 -11.25051,17.62279 -17.85714,25.71428 -3.84046,4.70362 -7.89359,9.23359 -12.14286,13.57143 -7.40646,7.93114 -15.83045,14.91102 -25,20.71429 -4.48301,2.83723 -9.14649,5.39582 -13.98985,7.56128 -5.9287,2.65071 -12.11319,4.7062 -18.39811,6.34191 -9.13099,2.37642 -18.49102,3.87193 -27.9079,4.45903 l -89.70414,0.20925 c -10.82853,-0.8345 -21.5946,-2.47836 -32.17875,-4.91334 -6.13949,-1.41245 -12.2145,-3.08978 -18.32633,-4.61748 -7.33069,-1.83236 -14.79645,-3.45851 -22.35206,-3.36222 -2.82161,0.036 -5.66198,0.31747 -8.3558,1.15778 -2.69382,0.84031 -5.24526,2.26464 -7.14928,4.3473 -2.6016,2.8457 -3.80599,6.65382 -5.20921,10.2451 -1.65061,4.22445 -3.7518,8.41671 -7.14285,11.42857 -3.71913,3.30326 -8.6658,4.89073 -13.57143,5.71429 -8.46968,1.4219 -17.12671,0.81748 -25.71429,0.71428 -12.14465,-0.14595 -24.30437,0.71946 -36.42857,0 -4.19116,-0.24871 -8.521,-0.73351 -12.14286,-2.85714 -1.62488,-0.95273 -3.05418,-2.20745 -4.65738,-3.19621 -0.80161,-0.49438 -1.64974,-0.92286 -2.55115,-1.1957 -0.9014,-0.27285 -1.85952,-0.38674 -2.79147,-0.25094 -1.25836,0.18337 -2.41223,0.8099 -3.44312,1.55446 -1.03088,0.74457 -1.96584,1.61417 -2.98545,2.3741 -3.86019,2.87705 -8.76301,4.04573 -13.57143,4.28572 -2.78609,0.13905 -5.65557,-0.0258 -8.21736,-1.12986 -1.28089,-0.55201 -2.46951,-1.33842 -3.4179,-2.36114 -0.94839,-1.02272 -1.65041,-2.28667 -1.93616,-3.65186 -0.2718,-1.29858 -0.16304,-2.66261 0.22076,-3.93261 0.3838,-1.26999 1.03618,-2.44909 1.83263,-3.51015 1.59292,-2.12211 3.73089,-3.75788 5.80375,-5.41438 3.78655,-3.02598 7.56035,-6.27752 12.14285,-7.85715 4.60102,-1.58602 9.60392,-1.34221 14.46343,-1.07762 4.85951,0.2646 9.8614,0.51286 14.46515,-1.06523 2.43091,-0.83328 4.73055,-2.20343 6.33211,-4.21308 0.80077,-1.00483 1.41808,-2.16162 1.7586,-3.40056 0.34052,-1.23894 0.40013,-2.56017 0.12357,-3.81493 -0.42816,-1.94254 -1.63503,-3.64024 -3.07984,-5.00746 -1.4448,-1.36723 -3.13174,-2.44642 -4.7773,-3.56397 -6.92753,-4.7047 -13.2959,-10.23196 -18.92857,-16.42857 -6.36064,-3.53765 -11.53723,-9.16346 -14.53456,-15.79585 -2.99733,-6.6324 -3.7991,-14.23529 -2.25116,-21.34701 1.38903,-6.38165 4.56634,-12.21574 7.85715,-17.85714 1.42439,-2.44181 2.88228,-4.87634 3.98068,-7.48111 1.09839,-2.60478 1.83252,-5.40802 1.7336,-8.23318 -0.16285,-4.65103 -2.53264,-8.91116 -5,-12.85714 -3.08311,-4.93073 -6.41903,-9.70377 -10,-14.28572 -3.8492,-4.92516 -7.97747,-9.6249 -12.14285,-14.28571 -6.73831,-7.53977 -13.61084,-15.01485 -21.42858,-21.42857 -4.19781,-3.44391 -8.65051,-6.56688 -12.85714,-10 -2.19075,-1.78791 -4.33533,-3.67395 -6.82793,-5.00922 -2.49261,-1.33526 -5.4242,-2.0866 -8.17207,-1.41935 -2.08899,0.50725 -3.91179,1.78903 -5.48729,3.25156 -1.5755,1.46253 -2.95435,3.1248 -4.51271,4.60558 -5.97731,5.67974 -14.1259,8.31419 -21.42857,12.14286 -8.61262,4.51545 -16.22204,10.81503 -25,15 -2.91645,1.39044 -5.95232,2.54241 -8.75689,4.14659 -2.80458,1.60417 -5.41746,3.72734 -6.9574,6.56769 -1.02659,1.89351 -1.5323,4.01721 -2.05755,6.10608 -0.52526,2.08887 -1.09503,4.20504 -2.22816,6.03678 -1.0958,1.77139 -2.67983,3.2032 -4.42444,4.34115 -1.74461,1.13795 -3.65397,1.9979 -5.57556,2.80171 -3.28528,1.37425 -6.70025,2.61309 -10.25758,2.77738 -1.77867,0.0822 -3.57968,-0.11086 -5.268105,-0.67621 -1.688423,-0.56536 -3.262008,-1.51135 -4.474318,-2.81546 -1.134047,-1.21992 -1.934422,-2.73427 -2.382855,-4.33838 -0.448433,-1.60411 -0.550652,-3.29607 -0.380755,-4.953 0.339792,-3.31385 1.745168,-6.43493 3.4779,-9.28005 3.001526,-4.92847 6.990573,-9.16315 10.714283,-13.57143 4.39737,-5.20579 8.45636,-10.69736 12.14286,-16.42857 4.58611,-10.9843 11.43764,-21.01689 20,-29.28571 2.02352,-1.95415 4.14311,-3.81294 6.05151,-5.87966 1.9084,-2.06672 3.61586,-4.36648 4.66277,-6.97748 2.00254,-4.99436 1.39436,-10.7638 -0.71428,-15.71429 -2.15643,-5.06269 -5.74395,-9.35991 -9.28572,-13.57143 -2.30156,-2.73679 -4.61705,-5.48832 -6.42857,-8.57143 -3.30249,-5.62067 -4.79787,-12.11709 -5.71428,-18.57143 -2.58418,-18.20066 -0.91424,-36.80986 -3.57143,-55 -1.56642,-10.7231 -4.618,-21.16782 -6.78572,-31.78571 -2.81881,-13.8071 -4.19039,-28.07712 -9.64285,-41.07143 -2.95265,-7.03675 -7.07354,-13.58169 -12.142863,-19.28571 -9.853635,-7.93441 -19.276817,-16.40335 -28.214289,-25.35715 -6.105758,-6.11691 -12.106325,-12.55514 -19.64285,-16.78571 -3.936909,-2.20995 -8.335958,-3.85366 -11.42858,-7.14286 -1.838931,-1.95582 -3.110984,-4.41328 -3.797891,-7.00848 -0.686908,-2.59519 -0.800407,-5.325215 -0.487819,-7.991521 0.469174,-4.001952 1.996877,-8.027843 5,-10.71429 1.907158,-1.706051 4.304172,-2.784154 6.763007,-3.492665 2.458836,-0.708512 5.001451,-1.070129 7.522703,-1.507335 8.10402,-1.405304 16.088392,-3.612079 24.28572,-4.28575 11.876343,-0.976019 23.812126,1.296162 35.714292,0.71428 4.42467,-0.216317 8.82219,-0.826366 13.24505,-1.076965 4.42286,-0.2506 8.92187,-0.132534 13.18352,1.076965 4.3845,1.244366 8.46838,3.677382 11.42857,7.14286 3.621,4.239082 5.38115,9.710595 7.14286,15 1.89206,5.680761 3.91113,11.388061 7.14286,16.428581"
       id="path3104"
       inkscape:path-effect="#path-effect3106"
       inkscape:original-d="m 162.80639,115.09678 c 5.99409,9.15633 17.16749,18.40886 22.35837,24.04186 5.19089,5.633 9.11946,17.77586 12.64163,23.81528 7.54913,12.94439 2.10483,6.17061 5.71428,20.71428 2.5648,10.33443 1.05367,24.4667 4.28572,34.28573 2.96465,9.00667 6.96612,16.8616 12.14286,24.28571 6.16594,8.84275 13.8055,16.73756 22.14285,23.57142 9.7595,7.99954 16.49502,12.51343 27.14286,19.28571 9.58455,6.09601 23.80063,13.49293 33.57143,19.28572 12.09574,7.17117 25.68154,11.85318 37.14286,20 12.63657,8.9822 24.60725,14.89779 35.71428,25.71428 7.11729,6.93112 13.40155,19.13832 19.28572,27.14287 5.30098,7.21121 9.2851,15.36517 12.85714,23.57142 3.90651,8.97464 7.40896,18.64412 10.71428,27.85715 3.35963,9.36443 7.25272,18.11822 9.28572,27.85714 2.19157,10.49856 1.29982,21.41877 1.42857,32.14286 0.14008,11.66826 -6.07275,24.63397 -0.71428,35 3.69962,7.15696 12.67795,10.21034 20,13.57143 10.76073,4.93957 22.69742,6.85584 34.28571,9.28571 9.42538,1.97635 18.95007,3.86947 28.57143,4.28571 15.25356,0.65991 30.62037,-0.55923 45.71428,-2.85714 10.90411,-1.66005 21.78824,-4.0575 32.14286,-7.85714 8.49676,-3.11789 17.35926,-6.31703 24.28572,-12.14286 9.51175,-8.00031 20.59308,-17.65316 26.68854,-28.48477 4.92229,-8.74689 7.82656,-19.7093 11.93364,-28.86729 4.44453,-9.91044 8.55812,-21.06738 14.28572,-30.29588 5.55007,-8.94246 7.38178,-14.97389 15.2451,-21.96954 6.2235,-5.53677 11.61332,-10.1316 19.91335,-10.83683 4.58187,-0.38931 10.14683,-2.833 13.36221,0.45431 3.89735,3.98453 2.18952,9.65751 2.68383,15.20921 1.14275,12.83457 -2.0654,26.29836 -6.847,37.05619 -2.06972,4.57636 -3.71956,10.32291 -5.83683,14.87746 -2.73721,16.68801 -9.37047,20.298 -17.14286,31.42857 -4.85077,12.51565 -9.51388,17.02648 -17.85714,25.71428 -4.17158,4.40976 -8.204,8.95261 -12.14286,13.57143 -5.99426,10.49265 -15.60882,15.32601 -25,20.71429 -4.97906,2.89347 -8.76812,5.13294 -13.98985,7.56128 -6.89841,3.20808 -10.95254,4.77881 -18.39811,6.34191 -7.47105,1.56845 -20.35765,3.33198 -27.9079,4.45903 -30.5914,1.44185 -59.30769,1.48951 -89.70414,0.20925 -11.69677,0.61185 -23.18099,-1.19287 -32.17875,-4.91334 -4.91871,-2.0374 -13.2308,-3.07468 -18.32633,-4.61748 -7.34888,-2.22506 -14.71109,-4.11883 -22.35206,-3.36222 -5.24481,0.51934 -11.67044,1.88938 -15.50508,5.50508 -3.73152,3.51847 -2.88852,5.67145 -5.20921,10.2451 -2.03274,4.00616 -3.72246,8.51613 -7.14285,11.42857 -3.73719,3.18219 -8.77405,4.67597 -13.57143,5.71429 -8.38069,1.81387 -17.14038,0.59522 -25.71429,0.71428 -12.14169,0.1686 -24.36668,1.39993 -36.42857,0 -4.13043,-0.47939 -8.72737,-0.4855 -12.14286,-2.85714 -1.41028,-0.97926 -8.39479,-4.03363 -10,-4.64285 -4.37344,-1.65985 -1.93499,2.62862 -6.42857,3.92856 -4.55716,1.31833 -8.84632,4.7088 -13.57143,4.28572 -5.09175,-0.4559 -12.21335,-2.21443 -13.57142,-7.14286 -1.33429,-4.84215 3.87442,-9.79696 7.85714,-12.85714 5.31663,-4.08511 5.75774,-5.81142 12.14285,-7.85715 6.95547,-2.22847 22.65937,1.60437 28.92858,-2.14285 3.61568,-2.16116 8.03861,-7.2199 8.21428,-11.42857 0.16164,-3.87254 -5.06562,-5.88255 -7.85714,-8.57143 -4.50119,-4.33569 -15.70489,-11.07443 -18.92857,-16.42857 -2.36497,-9.86886 -16.43722,-30.81728 -16.78572,-37.14286 -0.15977,-6.50113 5.43512,-11.82191 7.85715,-17.85714 2.07587,-5.17267 5.77593,-10.14096 5.71428,-15.71429 -0.0509,-4.5981 -2.8326,-8.80159 -5,-12.85714 -2.73973,-5.12648 -6.44715,-9.68527 -10,-14.28572 -3.81999,-4.94637 -7.90597,-9.69139 -12.14285,-14.28571 -6.84815,-7.42588 -13.85569,-14.74335 -21.42858,-21.42857 -4.07031,-3.59319 -8.18078,-7.24137 -12.85714,-10 -4.68535,-2.76394 -9.60644,-7.13666 -15,-6.42857 -4.2031,0.5518 -6.4793,5.49596 -10,7.85714 -6.81853,4.57289 -13.88215,8.90942 -21.42857,12.14286 -9.14928,3.92023 -17.53401,9.87835 -25,15 -5.2381,3.57143 -11.84816,5.68976 -15.71429,10.71428 -2.61755,3.40183 -1.70545,8.71266 -4.28571,12.14286 -2.46245,3.27359 -6.07738,5.96257 -10,7.14286 -6.38801,1.9221 -15.461023,4.17435 -20.000003,-0.71429 -4.2152,-4.53991 -1.429556,-12.75915 0.71429,-18.57143 1.99456,-5.40756 7.215193,-8.99144 10.714283,-13.57143 4.13412,-5.41118 7.69915,-11.26859 12.14286,-16.42857 11.75888,-8.12123 13.72898,-19.40024 20,-29.28571 3.05352,-4.66888 8.93475,-7.56983 10.71428,-12.85714 1.6726,-4.96958 0.94877,-10.7415 -0.71428,-15.71429 -1.73849,-5.19837 -6.09294,-9.11593 -9.28572,-13.57143 -2.08028,-2.90302 -5.10655,-5.2537 -6.42857,-8.57143 -2.30671,-5.78889 -4.99999,-12.38095 -5.71428,-18.57143 -1.93899,-20.60011 1.34436,-38.15902 -3.57143,-55 -1.89354,-6.98943 -1.60242,-20.79743 -6.78572,-31.78571 -6.35641,-14.03695 -2.78046,-28.53229 -9.64285,-41.07143 -2.62645,-4.51324 -8.692603,-15.3661 -12.142863,-19.28571 -9.07181,-14.50978 -18.383029,-19.06234 -28.214289,-25.35715 -8.76052,-5.65311 -12.89309,-10.79299 -19.64285,-16.78571 -3.40572,-2.92959 -8.72688,-3.55368 -11.42858,-7.14286 -3.12731,-4.1546 -4.69694,-9.81621 -4.28571,-15.000001 0.31167,-3.92884 2.07743,-8.07015 5,-10.71429 3.74122,-3.38479 9.40457,-3.72409 14.28571,-5 7.95311,-2.07893 16.08997,-3.65065 24.28572,-4.28575 11.871552,-0.91995 23.807739,0.59523 35.714292,0.71428 8.80908,0.0881 17.96043,-2.42863 26.42857,0 4.31829,1.23847 8.43841,3.7902 11.42857,7.14286 3.68611,4.13299 4.84798,9.95991 7.14286,15 2.47449,5.434571 3.87224,11.432521 7.14286,16.428581 z"
       inkscape:connector-curvature="0"
       sodipodi:nodetypes="ssssssssssssssssssssssssssssssccccccsscccssssssssssssssssssccsssssssssscssssssccsssscccccccssssssssss" />
    <path
       sodipodi:type="arc"
       style="fill:#ffffff"
       id="path2985"
       sodipodi:cx="87.378197"
       sodipodi:cy="28.65309"
       sodipodi:rx="3.5355339"
       sodipodi:ry="3.0304577"
       d="m 90.913731,28.65309 a 3.5355339,3.0304577 0 1 1 -7.071068,0 3.5355339,3.0304577 0 1 1 7.071068,0 z"
       transform="matrix(1.3034711,0,0,1.6107023,-12.007475,45.025875)" />
  </g>
</svg>
